<?xml version="1.0" encoding="UTF-8" standalone="no"?>
<!-- Created with Inkscape (http://www.inkscape.org/) -->

<svg
        width="196.56853mm"
        height="73.278084mm"
        viewBox="0 0 196.56853 73.278084"
        version="1.1"
        id="svg8158"
        xml:space="preserve"
        xmlns="http://www.w3.org/2000/svg"
        ><defs
     id="defs8155" /><g
        id="layer1"
        transform="translate(-4.4391504,-44.027556)"><path
       style="fill:#153199;stroke-width:0.248553"
       d="M 19.123839,105.55889 C 13.695071,99.04991 8.8599464,93.0182 8.2800944,92.03158 7.2006342,90.194859 5.0120536,85.075262 5.2068829,84.842624 c 0.060448,-0.07218 0.7822095,0.827786 1.6039139,1.999922 3.3833972,4.826304 8.0460542,8.235594 13.5151722,9.882154 1.691664,0.50931 2.6063,0.60292 5.76385,0.58996 3.292707,-0.0135 4.021939,-0.10145 5.944531,-0.71684 5.037399,-1.61237 9.536141,-4.82607 11.956136,-8.540913 1.333581,-2.047134 2.66546,-5.226817 3.302001,-7.88309 0.725174,-3.026131 0.725174,-8.536179 0,-11.56231 -1.892526,-7.897469 -7.152919,-14.036363 -13.810175,-16.116513 -2.135496,-0.667265 -6.679845,-0.676756 -8.729738,-0.01823 -3.672525,1.17979 -6.061237,2.783066 -8.575286,5.755632 -5.521379,6.528379 -7.3581296,15.412832 -4.864093,23.527859 1.118631,3.639768 1.097628,3.39352 0.237957,2.789843 C 9.4191784,83.052979 6.8492717,79.472236 5.7216097,76.427585 4.3294781,72.668875 4.0393533,67.82765 5.0055683,64.47922 7.2099494,56.839914 11.785873,50.653158 17.787481,47.19778 c 8.849794,-5.0952 18.855613,-3.996181 26.571665,2.918577 9.525152,8.535987 12.793166,23.85346 7.879283,36.930886 -1.662569,4.424637 -2.668965,5.831637 -13.143762,18.375847 -5.457261,6.5354 -9.978823,11.88255 -10.047917,11.88255 -0.06909,0 -4.534403,-5.28604 -9.922911,-11.74675 z m 37.060423,-13.08155 -0.638202,-0.6558 9.1e-4,-7.560134 c 9.1e-4,-7.272577 0.02102,-7.619501 0.527847,-9.120934 0.694005,-2.055912 2.445082,-4.320826 4.078163,-5.274866 1.041729,-0.608577 1.671481,-0.769033 3.365427,-0.857499 4.484026,-0.234172 7.528906,2.099819 8.74495,6.703271 0.408127,1.545003 0.455969,2.475764 0.455969,8.870792 v 7.14468 l -0.699837,0.70314 c -0.908499,0.9128 -2.009418,0.93133 -2.869995,0.0483 l -0.638139,-0.65485 -0.11373,-7.153684 c -0.111388,-7.006313 -0.125459,-7.17869 -0.68303,-8.367678 -1.294721,-2.760918 -4.496936,-3.329214 -6.453151,-1.145234 -1.194697,1.333798 -1.279777,1.918249 -1.281157,8.801034 -6.83e-4,3.543363 -0.10537,6.771042 -0.238052,7.341522 -0.416284,1.78984 -2.342038,2.4274 -3.557973,1.17794 z m 21.425546,0.32776 c -0.999203,-0.68425 -1.008786,-0.77784 -1.016342,-9.924903 l -0.0072,-8.759136 h -1.147644 c -0.915207,0 -1.260725,-0.135021 -1.70596,-0.666659 -1.337339,-1.596851 -0.227109,-4.222162 1.785528,-4.222162 h 1.01407 l 0.264758,-1.255492 c 0.885767,-4.200312 3.71241,-7.167223 7.248879,-7.608586 1.637517,-0.204366 2.597783,0.168423 2.974084,1.154582 0.699077,1.832048 -0.233858,3.635479 -1.880675,3.635479 -0.860032,0 -2.0282,0.570732 -2.716218,1.32706 -0.65028,0.714846 -1.287595,1.933384 -1.287595,2.461868 0,0.181082 0.877707,0.285089 2.40584,0.285089 2.355806,0 2.41967,0.01651 3.070728,0.793912 0.868968,1.037593 0.913339,2.46493 0.106572,3.42825 -0.528299,0.630821 -0.699486,0.666659 -3.184458,0.666659 h -2.626143 v 8.712128 8.712131 l -0.664888,0.79391 c -0.717909,0.85722 -1.785892,1.04616 -2.633302,0.46587 z m 15.307624,-0.19637 c -4.275727,-1.63241 -7.005285,-6.137398 -7.005285,-11.56184 0,-5.371546 2.663221,-9.867525 6.8427,-11.551669 1.220201,-0.491685 1.854092,-0.572199 3.864277,-0.490819 2.235081,0.09048 2.525241,0.168518 4.114906,1.106628 2.06532,1.218819 3.58516,3.049546 4.51884,5.44318 2.75211,7.05544 -0.25438,15.3066 -6.252625,17.16003 -1.807875,0.55862 -4.463939,0.51255 -6.082813,-0.10551 z m 4.910043,-4.69471 c 1.36161,-0.480367 3.147055,-2.693726 3.659765,-4.536906 1.2903,-4.638589 -1.4414,-9.508718 -5.339334,-9.519036 -3.186528,-0.0084 -5.669726,3.026793 -5.681538,6.944583 -0.0058,1.940766 0.280337,3.078756 1.165193,4.633238 1.342527,2.3585 3.776081,3.331826 6.195914,2.478121 z m 11.127815,4.56315 -0.6382,-0.65597 0.004,-7.559965 c 0.004,-7.250542 0.0258,-7.623844 0.52785,-9.120763 0.68689,-2.047932 2.43835,-4.318865 4.06291,-5.267924 0.97523,-0.569727 1.70185,-0.768813 3.13343,-0.858534 1.81396,-0.113684 1.87693,-0.09683 2.35609,0.630541 0.30282,0.459666 0.49233,1.133218 0.49233,1.749777 0,1.379555 -0.71926,2.130763 -2.34212,2.446143 -1.46216,0.284155 -1.89425,0.5196 -2.59431,1.413657 -1.09043,1.392613 -1.20494,2.231711 -1.2063,8.839547 -6.8e-4,3.449247 -0.10605,6.638201 -0.23805,7.205721 -0.41631,1.78995 -2.34214,2.42745 -3.55797,1.17777 z m 10.69068,2.1e-4 -0.6382,-0.65576 v -8.239176 -8.239178 l 0.59591,-1.517294 c 0.69017,-1.757322 1.85369,-3.244765 3.22011,-4.116591 0.82992,-0.529519 1.3012,-0.612941 3.46274,-0.612941 2.33001,0 2.5765,0.05223 3.58421,0.759532 0.59517,0.417742 1.24678,1.059595 1.44803,1.426338 l 0.3659,0.666808 0.89615,-1.070046 c 1.25803,-1.502166 2.67457,-2.013545 5.16076,-1.86307 3.02696,0.183203 4.90655,1.654217 6.14595,4.80997 0.59494,1.514831 0.59603,1.530418 0.668,9.600146 l 0.0721,8.082852 -0.68011,0.81209 c -1.0126,1.2091 -2.82698,1.01126 -3.41358,-0.37223 -0.15369,-0.36246 -0.27007,-3.340157 -0.30932,-7.914328 -0.0545,-6.346588 -0.11587,-7.448767 -0.45644,-8.191952 -0.63969,-1.395945 -1.452,-1.99309 -2.71123,-1.99309 -0.93555,0 -1.23644,0.138709 -1.91477,0.882703 -0.50961,0.558947 -0.88182,1.281173 -1.01481,1.969109 -0.1155,0.597522 -0.21245,4.181875 -0.21543,7.965224 l -0.005,6.878824 -0.66489,0.79391 c -0.49225,0.58777 -0.88068,0.79391 -1.49599,0.79391 -0.61532,0 -1.00375,-0.20614 -1.496,-0.79391 l -0.66489,-0.79391 v -7.268373 c 0,-6.734347 -0.0337,-7.351539 -0.45891,-8.400327 -0.60893,-1.501973 -1.62026,-2.154721 -3.04197,-1.963378 -1.14922,0.154669 -1.7889,0.685326 -2.37785,1.972585 -0.31408,0.686472 -0.38319,1.953806 -0.43697,8.012875 -0.0351,3.958586 -0.11414,7.470208 -0.17557,7.803588 -0.13356,0.7248 -1.18375,1.43085 -2.12828,1.43085 -0.39209,0 -0.95174,-0.27819 -1.3192,-0.65576 z m 33.57402,0.15794 c -6.97835,-2.76054 -9.01117,-14.387448 -3.59416,-20.557072 1.94761,-2.218199 3.41524,-2.938678 6.23068,-3.058726 2.51766,-0.10735 4.08575,0.355045 5.73095,1.68993 l 0.86468,0.701586 0.17483,-0.805628 c 0.38694,-1.783038 2.41851,-2.257473 3.6042,-0.841698 l 0.67256,0.803073 -0.0645,10.627916 -0.0645,10.627919 -0.6382,0.65526 c -1.14701,1.17766 -3.2282,0.59002 -3.49218,-0.98604 -0.14787,-0.88278 -0.3423,-0.99673 -0.73549,-0.43103 -0.14223,0.20464 -0.89582,0.71353 -1.67464,1.13087 -1.88292,1.00898 -5.0747,1.21086 -7.01415,0.44364 z m 5.07598,-4.674989 c 1.29652,-0.42995 2.69795,-1.863683 3.40794,-3.486506 0.52476,-1.199431 0.63437,-1.789031 0.63025,-3.390049 -0.008,-3.105582 -1.15494,-5.407717 -3.2839,-6.591472 -3.02411,-1.681477 -6.42252,0.04978 -7.6239,3.88385 -0.91149,2.908914 -0.39913,5.699808 1.43944,7.840889 1.61539,1.881177 3.34243,2.435621 5.43017,1.743288 z m 11.97077,4.359719 -0.68095,-0.81309 0.0729,-7.538644 0.0729,-7.538646 0.70389,-1.765407 c 0.85763,-2.151013 2.20713,-3.806954 3.92184,-4.812416 1.18213,-0.693175 1.50376,-0.755407 3.90407,-0.755407 2.35408,0 2.74434,0.07196 3.90049,0.719189 1.69695,0.949971 3.03356,2.592357 3.91252,4.807554 l 0.71679,1.806487 0.0729,7.538646 0.0729,7.538644 -0.68095,0.81309 c -0.87185,1.04104 -2.00102,1.10222 -2.92101,0.15826 l -0.6382,-0.65482 -0.11373,-7.15371 c -0.11136,-7.004658 -0.12553,-7.178309 -0.67994,-8.334643 -1.64169,-3.424062 -5.87656,-3.332261 -7.31622,0.158596 -0.51119,1.239498 -0.53662,1.587788 -0.60442,8.277509 l -0.0708,6.983568 -0.68592,0.68916 c -0.97209,0.97669 -2.07617,0.93046 -2.95919,-0.12392 z m 25.92693,0.29193 c -2.50499,-0.95658 -3.8549,-2.409294 -5.05613,-5.441199 l -0.70454,-1.778273 -0.081,-5.635724 -0.081,-5.635723 h -1.07467 c -0.8256,0 -1.18203,-0.141635 -1.53785,-0.611103 -1.40321,-1.851366 -0.35327,-4.277718 1.85108,-4.277718 h 0.80741 v -1.914695 c 0,-2.001578 0.37616,-3.318901 1.03376,-3.620215 0.88269,-0.40445 2.17073,-0.169488 2.72969,0.497945 0.50025,0.597327 0.55831,0.893905 0.55831,2.851812 v 2.185153 h 2.39964 c 3.33255,0 3.96928,0.431656 3.96928,2.69088 0,0.711729 -0.15797,1.194051 -0.52645,1.607396 -0.47909,0.53742 -0.76781,0.590545 -3.2094,0.590545 h -2.68295 l 0.0861,4.956721 c 0.0788,4.535342 0.13155,5.067917 0.62115,6.264746 0.66672,1.629824 1.76956,2.528772 3.49492,2.848784 1.70669,0.316545 2.21666,0.872391 2.21666,2.416058 0,1.75157 -0.72006,2.53058 -2.32114,2.51116 -0.66248,-0.008 -1.78423,-0.23598 -2.49277,-0.50655 z M 27.305315,84.430654 C 26.216911,84.173535 24.72168,83.324445 23.620741,82.338312 l -0.763118,-0.683541 2.915843,-3.48942 c 2.783476,-3.331014 2.874911,-3.475229 2.014156,-3.17684 -1.050949,0.364321 -5.064326,0.452654 -6.303895,0.138748 -0.845493,-0.214114 -0.85298,-0.227732 -0.85298,-1.551519 0,-3.018618 1.790121,-6.451494 4.189089,-8.033321 3.286578,-2.1671 7.200111,-1.669301 9.998347,1.271781 3.482412,3.660184 3.76009,10.32077 0.602268,14.446418 -2.065645,2.698738 -5.097229,3.882973 -8.115136,3.170036 z"
       id="path9380" /></g></svg>
