<svg
        id="svg"
        version="1.1"
        width="24.566933"
        height="23.439505"
        viewBox="0 0 24.566933 23.439505"
        xmlns="http://www.w3.org/2000/svg"
        >
    <defs
            id="defs141" />

    <g
            id="svgg"
            transform="scale(0.06141733,0.05859876)">
        <path
                id="path0"
                d="m 188.171,46.766 c -1.336,0.164 -2.608,0.409 -2.825,0.544 -0.218,0.135 -3.084,0.539 -6.369,0.899 -3.284,0.36 -6.186,0.833 -6.448,1.05 -0.262,0.217 -2.126,0.661 -4.143,0.986 -2.017,0.324 -4.054,0.838 -4.527,1.141 -0.472,0.304 -1.759,0.675 -2.859,0.826 -1.1,0.15 -2.58,0.605 -3.288,1.01 -0.709,0.406 -1.969,0.858 -2.8,1.006 -0.832,0.148 -2.052,0.588 -2.712,0.978 -0.66,0.389 -1.83,0.84 -2.6,1.001 -0.77,0.161 -2.03,0.623 -2.8,1.025 -0.77,0.403 -2.66,1.289 -4.2,1.97 -1.54,0.681 -3.25,1.494 -3.8,1.808 -0.55,0.313 -1.72,0.937 -2.6,1.386 -0.88,0.449 -2.5,1.344 -3.6,1.989 -1.1,0.644 -2.573,1.449 -3.273,1.787 -0.7,0.339 -1.397,0.817 -1.548,1.063 -0.152,0.246 -0.84,0.702 -1.528,1.015 -0.688,0.312 -2.061,1.19 -3.051,1.951 -0.99,0.761 -2.34,1.683 -3,2.051 -0.66,0.367 -1.435,1 -1.723,1.408 -0.287,0.407 -0.717,0.74 -0.954,0.74 -0.237,0 -0.842,0.405 -1.343,0.9 -0.502,0.495 -1.513,1.388 -2.246,1.985 -0.734,0.597 -2.3,1.947 -3.481,3 -1.181,1.053 -2.407,2.065 -2.725,2.249 -2.276,1.315 -5.32,5.469 -6.304,8.603 -0.321,1.025 -0.867,2.641 -1.212,3.591 -1.412,3.889 -1.175,31.419 0.296,34.315 0.324,0.636 0.719,2.057 0.878,3.157 0.16,1.1 0.7,2.99 1.201,4.2 0.501,1.21 1.029,2.857 1.173,3.66 0.506,2.829 2.528,2.371 3.822,-0.865 0.307,-0.767 0.847,-1.845 1.201,-2.395 0.354,-0.55 0.965,-1.63 1.358,-2.4 1.257,-2.465 2.17,-4.037 2.745,-4.728 0.307,-0.369 0.778,-1.122 1.045,-1.672 0.58,-1.194 2.205,-3.549 3.058,-4.434 0.336,-0.348 0.611,-0.754 0.611,-0.901 0,-0.312 3.914,-5.577 5.275,-7.098 0.509,-0.568 1.735,-1.985 2.725,-3.149 3.707,-4.359 4.684,-5.35 8,-8.126 1.87,-1.565 3.783,-3.216 4.251,-3.669 1.514,-1.463 2.702,-2.391 5.149,-4.023 1.32,-0.881 2.85,-1.924 3.4,-2.319 2.137,-1.536 7.76,-5.081 8.059,-5.081 0.441,0 5.848,-3.526 6.145,-4.007 0.134,-0.216 0.638,-0.394 1.12,-0.394 0.84,-0.001 4.983,-1.924 7.076,-3.284 0.55,-0.357 1.81,-0.859 2.8,-1.115 0.99,-0.256 2.16,-0.693 2.6,-0.972 0.44,-0.279 1.52,-0.734 2.4,-1.012 0.88,-0.278 1.967,-0.734 2.416,-1.015 0.449,-0.28 1.882,-0.731 3.184,-1.001 1.302,-0.27 2.739,-0.735 3.192,-1.031 0.453,-0.297 1.9,-0.66 3.216,-0.806 1.316,-0.146 3.022,-0.594 3.792,-0.997 0.942,-0.492 3.03,-0.871 6.382,-1.159 2.74,-0.235 6.07,-0.716 7.4,-1.069 3.669,-0.973 24.69,-1.022 27.818,-0.065 1.21,0.37 4.337,0.871 6.95,1.113 2.612,0.241 5.837,0.806 7.167,1.253 1.329,0.448 3.332,0.921 4.45,1.051 1.118,0.13 2.416,0.484 2.885,0.787 0.468,0.304 1.996,0.736 3.395,0.962 1.399,0.225 2.815,0.654 3.148,0.954 0.333,0.3 1.145,0.669 1.805,0.822 0.66,0.152 1.862,0.722 2.671,1.265 0.809,0.544 2.201,1.086 3.094,1.206 0.893,0.12 1.828,0.464 2.078,0.766 0.25,0.301 0.637,0.548 0.86,0.548 0.605,0 6.504,3.066 9.317,4.842 1.357,0.857 2.611,1.558 2.788,1.558 0.383,0 4.135,2.325 4.992,3.093 1.378,1.235 6.397,4.885 7.506,5.458 0.659,0.341 1.669,1.179 2.244,1.863 0.575,0.683 2.082,2.022 3.348,2.974 7.835,5.892 12.159,11.994 12.933,18.251 0.257,2.069 0.707,4.301 1.001,4.961 0.295,0.66 0.738,2.82 0.985,4.8 0.247,1.98 0.747,4.68 1.11,6 0.977,3.553 0.969,26.786 -0.011,30.6 -0.367,1.43 -0.879,4.4 -1.138,6.6 -0.258,2.2 -0.724,4.72 -1.035,5.6 -0.311,0.88 -0.816,3.04 -1.123,4.8 -0.676,3.881 -1.999,8.632 -3.007,10.8 -0.409,0.88 -0.873,2.23 -1.031,3 -0.158,0.77 -1.056,3.02 -1.996,5 -0.94,1.98 -1.834,4.2 -1.987,4.933 -0.152,0.733 -0.962,2.541 -1.798,4.017 -0.837,1.477 -1.792,3.334 -2.124,4.127 -0.332,0.794 -1.34,2.577 -2.24,3.963 -0.9,1.385 -1.637,2.775 -1.637,3.087 0,0.312 -0.495,1.159 -1.1,1.881 -2.173,2.597 -2.889,3.599 -2.895,4.056 -0.003,0.255 -1.085,1.756 -2.405,3.336 -1.32,1.58 -2.4,3.011 -2.4,3.181 0,0.17 -0.495,0.958 -1.1,1.75 -0.605,0.793 -1.724,2.303 -2.486,3.355 -1.61,2.224 -2.026,2.748 -3.286,4.136 -0.51,0.563 -2.414,2.738 -4.229,4.835 -2.868,3.312 -8.624,8.693 -10.338,9.665 -0.313,0.177 -0.991,0.717 -1.508,1.2 -0.516,0.483 -1.369,1.199 -1.896,1.592 -0.526,0.392 -1.657,1.247 -2.512,1.9 -0.855,0.652 -1.794,1.186 -2.086,1.186 -0.292,0 -0.71,0.335 -0.93,0.745 -0.219,0.41 -0.945,0.972 -1.614,1.249 -0.668,0.277 -1.215,0.642 -1.215,0.811 0,0.17 -0.705,0.59 -1.566,0.935 -0.861,0.344 -1.679,0.809 -1.817,1.032 -0.137,0.223 -1.008,0.774 -1.934,1.226 -0.925,0.451 -2.583,1.357 -3.683,2.012 -1.1,0.655 -2.45,1.371 -3,1.59 -0.55,0.22 -1.27,0.583 -1.6,0.808 -0.33,0.224 -1.23,0.682 -2,1.017 -0.77,0.335 -2.303,1.052 -3.406,1.592 -1.103,0.541 -2.218,0.983 -2.479,0.983 -0.26,0 -1.319,0.45 -2.353,1 -1.035,0.55 -2.262,1 -2.727,1 -0.466,0 -1.474,0.336 -2.241,0.746 -0.767,0.411 -2.348,0.951 -3.514,1.2 -1.166,0.25 -2.628,0.717 -3.25,1.038 -0.621,0.322 -2.345,0.779 -3.83,1.016 -1.485,0.237 -3.173,0.676 -3.75,0.974 -0.578,0.299 -2.76,0.749 -4.85,1.002 -2.09,0.252 -4.7,0.725 -5.8,1.051 -5.704,1.689 -34.955,1.563 -41.81,-0.179 -1.644,-0.418 -4.25,-0.88 -5.79,-1.025 -1.54,-0.146 -3.331,-0.53 -3.981,-0.854 -0.649,-0.323 -2.449,-0.787 -4,-1.03 -1.55,-0.244 -3.219,-0.69 -3.708,-0.993 -0.488,-0.302 -1.838,-0.748 -3,-0.991 -1.161,-0.243 -2.651,-0.761 -3.311,-1.15 -0.66,-0.389 -1.92,-0.833 -2.8,-0.986 -0.88,-0.153 -2.02,-0.549 -2.534,-0.88 -0.514,-0.332 -1.798,-0.859 -2.853,-1.172 -1.054,-0.313 -2.141,-0.839 -2.414,-1.168 -0.273,-0.33 -0.763,-0.599 -1.089,-0.599 -0.541,0 -2.365,-0.839 -5.51,-2.533 -0.66,-0.356 -1.976,-1.01 -2.925,-1.453 -0.949,-0.444 -1.997,-1.079 -2.329,-1.411 -0.332,-0.331 -0.806,-0.603 -1.053,-0.603 -0.248,0 -1.09,-0.423 -1.871,-0.94 -0.782,-0.517 -2.322,-1.5 -3.422,-2.184 -2.66,-1.656 -4.534,-2.944 -5.347,-3.676 -0.366,-0.33 -1.154,-0.916 -1.749,-1.302 C 97.573,259.229 85.262,247.827 79.2,240.9 c -2.573,-2.94 -3.423,-3.222 -3.011,-1 0.153,0.825 0.529,1.779 0.834,2.12 0.306,0.341 0.835,1.412 1.177,2.38 0.342,0.968 0.872,2.039 1.179,2.38 0.307,0.341 0.679,1.102 0.826,1.691 0.147,0.588 0.611,1.381 1.031,1.762 0.42,0.38 0.764,0.902 0.764,1.16 0,0.499 2.002,3.766 4.4,7.181 0.33,0.47 0.96,1.451 1.4,2.18 0.788,1.307 3.631,5.1 5.579,7.446 0.549,0.66 2.053,2.486 3.343,4.057 2.192,2.67 7.925,8.689 14.168,14.877 1.48,1.466 4.18,4.166 6,5.999 44.195,44.512 82.478,82.467 83.18,82.467 0.583,0 15.972,-15.163 50.285,-49.546 49.108,-49.208 51.13,-51.274 55.435,-56.654 1.232,-1.54 2.638,-3.285 3.125,-3.877 2.077,-2.528 4.146,-5.458 4.65,-6.584 0.212,-0.474 0.58,-0.982 0.818,-1.128 0.238,-0.147 0.89,-1.11 1.451,-2.139 0.56,-1.03 1.452,-2.592 1.982,-3.472 1.488,-2.468 2.893,-5.059 3.579,-6.6 0.344,-0.77 0.804,-1.67 1.023,-2 0.219,-0.33 0.668,-1.23 0.997,-2 0.33,-0.77 0.934,-2.12 1.343,-3 2.254,-4.854 2.842,-6.286 2.842,-6.924 0,-0.389 0.368,-1.42 0.818,-2.291 0.449,-0.872 1.011,-2.485 1.248,-3.585 0.237,-1.1 0.69,-2.507 1.007,-3.128 0.317,-0.62 0.838,-2.495 1.157,-4.166 0.32,-1.671 0.761,-3.254 0.98,-3.518 0.219,-0.263 0.676,-2.605 1.017,-5.204 0.341,-2.598 0.802,-5.064 1.024,-5.48 1.65,-3.081 1.607,-38.544 -0.052,-42.905 -0.243,-0.64 -0.706,-3.048 -1.029,-5.351 -0.324,-2.304 -0.777,-4.415 -1.007,-4.693 -0.231,-0.277 -0.672,-1.956 -0.982,-3.73 -0.31,-1.775 -0.82,-3.631 -1.134,-4.126 -0.313,-0.494 -0.696,-1.709 -0.851,-2.699 -0.154,-0.99 -0.602,-2.34 -0.995,-3 -0.393,-0.66 -0.845,-1.83 -1.003,-2.6 -0.383,-1.859 -2.572,-6.779 -6.406,-14.4 -3.574,-7.105 -4.376,-8.528 -4.904,-8.704 -0.268,-0.089 -0.488,-0.379 -0.488,-0.643 0,-0.551 -2.387,-4.397 -3.591,-5.787 -0.445,-0.514 -0.809,-1.074 -0.809,-1.245 0,-0.282 -0.576,-1.072 -3.312,-4.55 -0.488,-0.621 -1.248,-1.537 -1.688,-2.036 -0.44,-0.5 -1.34,-1.605 -2,-2.457 -3.649,-4.711 -12.614,-13.578 -18.263,-18.063 -2.275,-1.807 -4.416,-3.517 -4.757,-3.8 -0.341,-0.283 -1.691,-1.227 -3,-2.098 -1.309,-0.87 -2.702,-1.905 -3.096,-2.3 -0.393,-0.394 -0.956,-0.717 -1.251,-0.717 -0.294,0 -0.77,-0.283 -1.057,-0.629 -0.287,-0.346 -1.255,-1 -2.149,-1.454 -0.895,-0.453 -1.717,-0.96 -1.827,-1.126 -0.11,-0.165 -0.83,-0.595 -1.6,-0.955 -0.77,-0.359 -2.714,-1.36 -4.32,-2.224 -1.606,-0.864 -3.316,-1.695 -3.8,-1.846 -0.484,-0.152 -1.309,-0.611 -1.834,-1.021 -0.525,-0.41 -1.246,-0.745 -1.603,-0.745 -0.357,0 -1.495,-0.45 -2.528,-1 -1.033,-0.55 -2.13,-1 -2.437,-1 -0.307,0 -1.352,-0.422 -2.322,-0.937 -0.969,-0.516 -2.452,-1.067 -3.294,-1.225 -0.843,-0.158 -2.191,-0.624 -2.997,-1.036 -0.806,-0.411 -2.365,-0.877 -3.465,-1.034 -1.1,-0.158 -2.63,-0.605 -3.4,-0.994 -0.77,-0.389 -2.57,-0.833 -4,-0.987 -1.43,-0.154 -3.082,-0.527 -3.671,-0.829 -0.589,-0.302 -3.559,-0.815 -6.6,-1.141 -3.041,-0.326 -6.159,-0.801 -6.929,-1.056 -1.644,-0.544 -22.482,-0.858 -26.229,-0.395 m 4.57,91.612 c -1.683,0.141 -3.315,0.469 -3.628,0.728 -0.312,0.259 -1.545,0.671 -2.74,0.915 -1.195,0.244 -2.623,0.747 -3.173,1.118 -0.55,0.371 -1.713,0.922 -2.585,1.224 -0.872,0.303 -1.83,0.795 -2.129,1.094 -0.299,0.299 -0.776,0.543 -1.06,0.543 -0.284,0 -1.195,0.54 -2.026,1.2 -0.831,0.66 -1.683,1.2 -1.895,1.2 -0.211,0 -0.866,0.495 -1.455,1.1 -0.588,0.605 -1.696,1.656 -2.46,2.336 -2.273,2.022 -4.899,5.03 -6.255,7.164 -0.699,1.1 -1.617,2.45 -2.041,3 -0.423,0.55 -0.883,1.462 -1.021,2.026 -0.138,0.565 -0.597,1.425 -1.02,1.913 -0.423,0.487 -0.891,1.556 -1.04,2.374 -0.15,0.818 -0.542,1.906 -0.872,2.417 -0.528,0.82 -1.772,7.275 -2.406,12.486 -0.378,3.107 1.35,3.95 9.572,4.672 9.064,0.795 26.25,0.11 27.714,-1.105 0.828,-0.687 5.043,-1.228 5.649,-0.725 0.852,0.707 0.635,1.215 -1.514,3.542 -2.175,2.355 -4.249,4.901 -5.049,6.2 -2.787,4.52 -3.64,6.256 -3.877,7.882 -0.151,1.036 -0.571,2.476 -0.933,3.2 -0.823,1.643 -1.457,11.307 -1.087,16.56 0.251,3.577 0.278,3.653 1.523,4.32 0.697,0.373 1.791,0.963 2.432,1.311 2.597,1.411 20.734,1.088 23.125,-0.412 0.501,-0.314 1.584,-0.689 2.407,-0.834 1.298,-0.227 4.413,-1.543 6.303,-2.663 0.33,-0.196 1.32,-0.742 2.2,-1.214 1.427,-0.766 2.797,-1.74 4.581,-3.256 0.32,-0.272 1.17,-0.965 1.889,-1.542 0.72,-0.576 2.399,-2.286 3.733,-3.8 1.333,-1.513 2.703,-3.051 3.044,-3.417 0.685,-0.735 1.689,-2.465 2.895,-4.991 0.436,-0.911 0.974,-1.768 1.196,-1.906 0.222,-0.137 0.605,-0.922 0.85,-1.744 0.246,-0.822 0.779,-2.214 1.185,-3.094 0.666,-1.446 1.436,-4.808 2.519,-11 0.492,-2.816 0.102,-9.75 -0.672,-11.944 -0.329,-0.931 -0.715,-2.629 -0.858,-3.774 -0.144,-1.145 -0.599,-2.643 -1.012,-3.329 -0.412,-0.686 -0.75,-1.483 -0.75,-1.77 0,-1.103 -3.386,-7.454 -5.505,-10.325 -1.334,-1.809 -9.362,-9.658 -9.878,-9.658 -0.285,0 -0.736,-0.262 -1.002,-0.582 -0.566,-0.682 -5.007,-3.176 -6.432,-3.612 -0.54,-0.165 -1.261,-0.544 -1.6,-0.84 -0.34,-0.297 -1.78,-0.835 -3.2,-1.196 -1.421,-0.361 -2.78,-0.815 -3.02,-1.01 -1.144,-0.925 -11.659,-1.367 -18.622,-0.782"
                stroke="none"
                fill="#30648f"
                fill-rule="evenodd" />

        <path
                id="path2"
                d="m 210.8,70.796 c -2.31,0.174 -4.807,0.509 -5.549,0.746 -0.743,0.237 -3.623,0.624 -6.4,0.861 -3.422,0.292 -5.502,0.666 -6.451,1.163 -0.77,0.402 -2.476,0.851 -3.792,0.997 -1.316,0.146 -2.763,0.509 -3.216,0.806 -0.453,0.296 -1.89,0.761 -3.192,1.031 -1.302,0.27 -2.735,0.721 -3.184,1.001 -0.449,0.281 -1.536,0.737 -2.416,1.015 -0.88,0.278 -1.96,0.733 -2.4,1.012 -0.44,0.279 -1.61,0.716 -2.6,0.972 -0.99,0.256 -2.25,0.758 -2.8,1.115 -2.093,1.36 -6.236,3.283 -7.076,3.284 -0.482,0 -0.986,0.178 -1.12,0.394 -0.302,0.489 -5.708,4.007 -6.157,4.007 -0.279,0 -3.468,1.991 -7.247,4.526 -0.55,0.369 -2.395,1.602 -4.1,2.739 -1.705,1.138 -3.1,2.227 -3.1,2.421 0,0.194 0.826,-0.241 1.835,-0.967 1.009,-0.725 2.494,-1.698 3.3,-2.161 0.806,-0.463 2.365,-1.408 3.465,-2.1 1.87,-1.175 2.585,-1.536 6.2,-3.123 0.77,-0.338 2.21,-0.997 3.2,-1.465 0.99,-0.467 2.61,-1.148 3.6,-1.511 7.284,-2.678 9.777,-3.479 11.539,-3.713 1.108,-0.147 2.61,-0.512 3.338,-0.811 0.728,-0.299 2.673,-0.761 4.323,-1.027 1.65,-0.267 4.44,-0.778 6.2,-1.138 4.614,-0.942 22.54,-0.934 26,0.011 1.32,0.361 4.11,0.869 6.2,1.13 2.09,0.26 3.995,0.632 4.234,0.825 0.238,0.194 1.768,0.61 3.4,0.926 1.631,0.315 3.776,0.944 4.766,1.397 0.99,0.453 2.073,0.827 2.406,0.832 0.333,0.005 1.233,0.341 2,0.748 0.767,0.406 1.906,0.863 2.531,1.017 2.156,0.527 11.274,5.102 16.032,8.044 0.712,0.44 1.888,1.16 2.613,1.6 5.342,3.243 16.939,13.79 21.769,19.8 0.796,0.99 1.748,2.114 2.115,2.498 0.599,0.624 1.637,2.062 5.248,7.267 1.768,2.549 6.448,11.417 8.673,16.435 1.141,2.573 2.111,5.342 3.012,8.6 0.395,1.43 0.984,3.324 1.309,4.208 0.326,0.885 0.716,2.595 0.869,3.8 0.152,1.206 0.528,3.098 0.836,4.205 2.01,7.237 2.219,30.01 0.338,36.769 -0.31,1.11 -0.75,3.098 -0.979,4.418 -0.394,2.269 -1.894,7.774 -2.834,10.4 -0.237,0.66 -0.698,2.01 -1.026,3 -1.487,4.495 -6.888,15.723 -9.525,19.8 -1.995,3.086 -3.903,6.517 -3.002,5.4 0.443,-0.55 1.04,-1.27 1.325,-1.6 0.285,-0.33 1.142,-1.461 1.904,-2.514 0.762,-1.052 1.881,-2.562 2.486,-3.355 0.605,-0.792 1.1,-1.58 1.1,-1.75 0,-0.17 1.08,-1.601 2.4,-3.181 1.32,-1.58 2.402,-3.081 2.405,-3.336 0.006,-0.457 0.722,-1.459 2.895,-4.056 0.605,-0.722 1.1,-1.569 1.1,-1.881 0,-0.312 0.737,-1.702 1.637,-3.087 0.9,-1.386 1.908,-3.169 2.24,-3.963 0.332,-0.793 1.287,-2.65 2.124,-4.127 0.836,-1.476 1.646,-3.284 1.798,-4.017 0.153,-0.733 1.047,-2.953 1.987,-4.933 0.94,-1.98 1.838,-4.23 1.996,-5 0.158,-0.77 0.622,-2.12 1.031,-3 1.008,-2.168 2.331,-6.919 3.007,-10.8 0.307,-1.76 0.812,-3.92 1.123,-4.8 0.311,-0.88 0.777,-3.4 1.035,-5.6 0.259,-2.2 0.771,-5.17 1.138,-6.6 0.98,-3.814 0.988,-27.047 0.011,-30.6 -0.363,-1.32 -0.863,-4.02 -1.11,-6 -0.247,-1.98 -0.69,-4.14 -0.985,-4.8 -0.294,-0.66 -0.744,-2.892 -1.001,-4.961 -0.774,-6.257 -5.098,-12.359 -12.933,-18.251 -1.266,-0.952 -2.773,-2.291 -3.348,-2.974 -0.575,-0.684 -1.585,-1.522 -2.244,-1.863 -1.109,-0.573 -6.128,-4.223 -7.506,-5.458 -0.857,-0.768 -4.609,-3.093 -4.992,-3.093 -0.177,0 -1.431,-0.701 -2.788,-1.558 C 279.007,85.066 273.108,82 272.503,82 c -0.223,0 -0.61,-0.247 -0.86,-0.548 -0.25,-0.302 -1.185,-0.646 -2.078,-0.766 -0.893,-0.12 -2.285,-0.662 -3.094,-1.206 -0.809,-0.543 -2.011,-1.113 -2.671,-1.265 -0.66,-0.153 -1.472,-0.522 -1.805,-0.822 -0.333,-0.3 -1.749,-0.729 -3.148,-0.954 -1.399,-0.226 -2.927,-0.658 -3.395,-0.962 -0.469,-0.303 -1.767,-0.657 -2.885,-0.787 -1.118,-0.13 -3.121,-0.603 -4.45,-1.051 -1.33,-0.447 -4.555,-1.011 -7.167,-1.253 -2.613,-0.241 -5.65,-0.714 -6.75,-1.05 -2.354,-0.72 -16.612,-1.049 -23.4,-0.54 M 101.6,88.6 c -0.742,0.99 -1.504,1.8 -1.693,1.8 -0.556,0 -8.142,8.729 -9.863,11.348 -0.354,0.54 -1.825,2.752 -3.269,4.916 -4.231,6.346 -4.227,6.34 -7.232,12.023 -4.736,8.96 -4.663,8.797 -8.352,18.713 -0.409,1.1 -0.949,2.794 -1.2,3.764 -0.251,0.97 -0.709,2.149 -1.018,2.621 -1.717,2.621 -1.556,23.914 0.233,30.815 2.631,10.149 4.665,16.334 5.979,18.179 0.448,0.63 0.815,1.397 0.815,1.705 0,0.308 0.45,1.171 1,1.916 0.55,0.745 1,1.536 1,1.756 0,0.39 0.278,0.843 3.345,5.444 4.216,6.326 6.117,8.649 11.055,13.521 4.973,4.905 7.24,6.805 11.318,9.482 1.394,0.916 3.751,1.399 3.398,0.697 -0.962,-1.915 -2.103,-4.729 -2.786,-6.869 -0.462,-1.447 -1.164,-3.376 -1.559,-4.288 -0.395,-0.911 -0.848,-2.345 -1.005,-3.186 -0.158,-0.842 -0.599,-2.256 -0.98,-3.143 -0.38,-0.888 -0.806,-2.811 -0.946,-4.274 -0.14,-1.463 -0.521,-3.533 -0.848,-4.6 -1.551,-5.066 -1.824,-27.72 -0.406,-33.74 0.337,-1.43 0.885,-4.282 1.219,-6.338 0.334,-2.055 0.798,-4.095 1.032,-4.531 0.234,-0.437 0.699,-1.725 1.035,-2.862 0.335,-1.138 0.762,-2.256 0.948,-2.485 0.187,-0.229 0.901,-2.119 1.587,-4.2 0.686,-2.081 1.6,-4.279 2.032,-4.884 0.905,-1.268 0.437,-1.489 -0.638,-0.301 -0.933,1.03 -1.682,0.466 -2.041,-1.539 -0.144,-0.803 -0.672,-2.45 -1.173,-3.66 -0.501,-1.21 -1.041,-3.1 -1.201,-4.2 -0.159,-1.1 -0.554,-2.521 -0.878,-3.157 -1.471,-2.896 -1.708,-30.426 -0.296,-34.315 0.345,-0.95 0.907,-2.628 1.249,-3.728 0.341,-1.1 0.754,-2.18 0.918,-2.4 0.343,-0.462 0.851,-1.8 0.683,-1.8 -0.062,0 -0.72,0.81 -1.462,1.8 m 89.969,103.729 c -0.993,0.647 -21.301,20.795 -22.298,22.123 -0.393,0.524 -0.359,0.877 0.175,1.8 0.622,1.075 1.219,1.609 5.06,4.526 2.09,1.588 7.75,4.297 10.056,4.814 1.056,0.236 2.486,0.723 3.179,1.081 1.092,0.564 1.191,0.568 0.746,0.032 -0.283,-0.34 -1.032,-0.834 -1.665,-1.096 -1.893,-0.784 -2.149,-17.085 -0.325,-20.727 0.362,-0.724 0.782,-2.164 0.933,-3.2 0.162,-1.111 0.949,-3.007 1.922,-4.628 0.906,-1.51 1.835,-3.065 2.064,-3.457 0.228,-0.391 0.655,-1.001 0.949,-1.354 0.653,-0.788 0.526,-0.774 -0.796,0.086 m -116.53,45.208 c -0.092,0.149 0.086,0.619 0.396,1.044 0.338,0.462 0.565,0.562 0.565,0.249 0,-0.326 0.301,-0.445 0.8,-0.314 0.44,0.115 0.8,0.149 0.8,0.076 0,-0.311 -2.408,-1.303 -2.561,-1.055"
                stroke="none"
                fill="#9dbc6c"
                fill-rule="evenodd" />
        <path
                id="path3"
                d="m 190.8,45.625 c -7.029,0.175 -9.35,0.368 -10.6,0.881 -0.88,0.36 -3.464,0.833 -5.742,1.051 -2.579,0.246 -4.39,0.616 -4.8,0.981 -0.362,0.323 -1.877,0.715 -3.367,0.872 -1.489,0.157 -3.358,0.616 -4.151,1.021 -0.794,0.404 -2.275,0.852 -3.292,0.995 -1.016,0.143 -2.428,0.591 -3.136,0.996 -0.709,0.406 -1.969,0.853 -2.8,0.995 -0.832,0.142 -1.982,0.588 -2.557,0.992 -0.575,0.404 -1.725,0.862 -2.555,1.017 -0.83,0.156 -1.82,0.594 -2.2,0.974 -0.38,0.38 -1.384,0.821 -2.232,0.98 -0.847,0.159 -1.997,0.613 -2.554,1.009 -0.558,0.396 -1.644,1.006 -2.414,1.357 -0.77,0.351 -1.67,0.817 -2,1.036 -0.33,0.219 -1.23,0.683 -2,1.03 -2.006,0.904 -3.685,1.882 -4.981,2.901 -0.62,0.488 -1.363,0.887 -1.652,0.887 -0.289,0 -1.011,0.45 -1.605,1 -0.593,0.55 -1.312,1 -1.598,1 -0.285,0 -0.755,0.315 -1.045,0.7 -0.289,0.385 -0.997,0.97 -1.574,1.3 -2.191,1.254 -4.345,2.824 -4.345,3.166 0,0.196 -0.54,0.544 -1.2,0.774 -0.66,0.23 -1.2,0.698 -1.2,1.039 0,0.342 -0.265,0.621 -0.59,0.621 -1.294,0 -11.882,9.961 -14.351,13.5 -1.671,2.396 -1.223,2.826 0.675,0.646 1.675,-1.923 6.276,-6.509 6.888,-6.865 0.266,-0.154 1.45,-1.143 2.631,-2.196 1.181,-1.053 2.747,-2.403 3.481,-3 0.733,-0.597 1.744,-1.49 2.246,-1.985 0.501,-0.495 1.106,-0.9 1.343,-0.9 0.237,0 0.667,-0.333 0.954,-0.74 0.288,-0.408 1.063,-1.041 1.723,-1.408 0.66,-0.368 2.01,-1.29 3,-2.051 0.99,-0.761 2.363,-1.639 3.051,-1.951 0.688,-0.313 1.376,-0.769 1.528,-1.015 0.151,-0.246 0.848,-0.724 1.548,-1.063 0.7,-0.338 2.173,-1.143 3.273,-1.787 1.1,-0.645 2.72,-1.54 3.6,-1.989 0.88,-0.449 2.05,-1.073 2.6,-1.386 0.55,-0.314 2.26,-1.127 3.8,-1.808 1.54,-0.681 3.43,-1.567 4.2,-1.97 0.77,-0.402 2.03,-0.864 2.8,-1.025 0.77,-0.161 1.94,-0.612 2.6,-1.001 0.66,-0.39 1.88,-0.83 2.712,-0.978 0.831,-0.148 2.091,-0.6 2.8,-1.006 0.708,-0.405 2.188,-0.86 3.288,-1.01 1.1,-0.151 2.387,-0.522 2.859,-0.826 0.473,-0.303 2.51,-0.817 4.527,-1.141 2.017,-0.325 3.881,-0.769 4.143,-0.986 0.262,-0.217 3.118,-0.685 6.347,-1.039 3.229,-0.354 6.468,-0.863 7.197,-1.132 2.249,-0.827 25.339,-0.669 29.127,0.201 1.65,0.378 4.939,0.87 7.308,1.093 2.369,0.223 4.799,0.657 5.4,0.965 0.601,0.308 2.262,0.686 3.692,0.84 1.43,0.154 3.23,0.598 4,0.987 0.77,0.389 2.3,0.836 3.4,0.994 1.1,0.157 2.659,0.623 3.465,1.034 0.806,0.412 2.154,0.878 2.997,1.036 0.842,0.158 2.325,0.709 3.294,1.225 0.97,0.515 2.015,0.937 2.322,0.937 0.307,0 1.404,0.45 2.437,1 1.033,0.55 2.171,1 2.528,1 0.357,0 1.078,0.335 1.603,0.745 0.525,0.41 1.35,0.869 1.834,1.021 0.484,0.151 2.194,0.982 3.8,1.846 1.606,0.864 3.55,1.865 4.32,2.224 0.77,0.36 1.49,0.79 1.6,0.955 0.11,0.166 0.932,0.673 1.827,1.126 0.894,0.454 1.862,1.108 2.149,1.454 0.287,0.346 0.763,0.629 1.057,0.629 0.295,0 0.858,0.323 1.251,0.717 0.394,0.395 1.787,1.43 3.096,2.3 1.309,0.871 2.659,1.815 3,2.098 0.341,0.283 2.482,1.993 4.757,3.8 5.649,4.485 14.614,13.352 18.263,18.063 0.66,0.852 1.56,1.957 2,2.457 1.971,2.236 6.523,8.28 7.399,9.824 0.331,0.583 1.14,1.843 1.798,2.8 0.659,0.958 1.649,2.614 2.2,3.681 5.985,11.58 9.327,18.76 9.801,21.06 0.158,0.77 0.61,1.94 1.003,2.6 0.393,0.66 0.841,2.01 0.995,3 0.155,0.99 0.538,2.205 0.851,2.699 0.314,0.495 0.824,2.351 1.134,4.126 0.31,1.774 0.751,3.453 0.982,3.73 0.23,0.278 0.683,2.389 1.007,4.693 0.323,2.303 0.786,4.711 1.029,5.351 1.668,4.385 1.7,39.827 0.039,42.93 -0.23,0.43 -0.672,2.841 -0.982,5.358 -0.311,2.517 -0.832,5.102 -1.158,5.744 -0.327,0.643 -0.724,2.069 -0.882,3.169 -0.158,1.1 -0.627,2.81 -1.042,3.8 -0.415,0.99 -0.932,2.61 -1.149,3.6 -0.218,0.99 -0.762,2.513 -1.21,3.385 -0.448,0.871 -0.815,1.902 -0.815,2.291 0,0.638 -0.588,2.07 -2.842,6.924 -0.409,0.88 -1.013,2.23 -1.343,3 -0.329,0.77 -0.778,1.67 -0.997,2 -0.219,0.33 -0.679,1.23 -1.023,2 -0.686,1.541 -2.091,4.132 -3.579,6.6 -0.53,0.88 -1.422,2.442 -1.982,3.472 -0.561,1.029 -1.213,1.992 -1.451,2.139 -0.238,0.146 -0.606,0.654 -0.818,1.128 -0.504,1.126 -2.573,4.056 -4.65,6.584 -0.487,0.592 -1.893,2.337 -3.125,3.877 -4.305,5.38 -6.327,7.446 -55.435,56.654 -34.313,34.383 -49.702,49.546 -50.285,49.546 -0.694,0 -44.421,-43.355 -83.173,-82.467 -1.816,-1.833 -4.921,-4.907 -6.9,-6.83 -1.978,-1.923 -3.597,-3.555 -3.597,-3.627 0,-0.071 -2.205,-2.409 -4.9,-5.194 -2.695,-2.786 -5.44,-5.797 -6.1,-6.693 -0.66,-0.895 -1.65,-2.149 -2.2,-2.786 -1.509,-1.747 -4.099,-5.19 -5,-6.645 -0.44,-0.711 -1.445,-2.253 -2.234,-3.425 -2.845,-4.23 -3.966,-6.078 -3.966,-6.54 0,-0.258 -0.35,-0.786 -0.777,-1.172 -0.428,-0.387 -0.889,-1.213 -1.026,-1.835 -0.137,-0.622 -0.497,-1.337 -0.801,-1.589 -0.304,-0.252 -0.842,-1.331 -1.196,-2.397 -0.354,-1.066 -0.904,-2.154 -1.222,-2.418 -0.318,-0.264 -0.578,-0.757 -0.578,-1.096 0,-0.339 -0.458,-1.398 -1.018,-2.353 -0.717,-1.223 -0.912,-1.93 -0.657,-2.385 0.299,-0.534 0.439,-0.428 0.798,0.602 0.239,0.688 0.708,1.25 1.042,1.25 0.334,0 0.81,0.38 1.059,0.844 1.554,2.905 15.825,16.765 22.176,21.538 1.76,1.323 3.47,2.642 3.8,2.931 1.304,1.142 5.465,3.827 9.2,5.936 1.65,0.931 3.094,1.83 3.208,1.997 0.114,0.167 1.014,0.679 2,1.139 0.986,0.459 2.332,1.126 2.992,1.482 3.139,1.691 4.969,2.533 5.505,2.533 0.323,0 1.045,0.36 1.604,0.8 0.56,0.44 1.333,0.8 1.719,0.8 0.386,0 1.443,0.434 2.349,0.965 0.906,0.531 2.362,1.093 3.235,1.249 0.873,0.156 2.128,0.602 2.788,0.991 0.66,0.389 2.15,0.907 3.311,1.15 1.162,0.243 2.512,0.689 3,0.991 0.489,0.303 2.158,0.749 3.708,0.993 1.551,0.243 3.351,0.704 4,1.024 0.65,0.32 2.891,0.774 4.981,1.009 2.09,0.235 4.688,0.699 5.774,1.031 5.22,1.596 35.456,1.614 40.826,0.024 1.1,-0.326 3.71,-0.799 5.8,-1.051 2.09,-0.253 4.272,-0.703 4.85,-1.002 0.577,-0.298 2.265,-0.737 3.75,-0.974 1.485,-0.237 3.209,-0.694 3.83,-1.016 0.622,-0.321 2.084,-0.788 3.25,-1.038 1.166,-0.249 2.747,-0.789 3.514,-1.2 0.767,-0.41 1.775,-0.746 2.241,-0.746 0.465,0 1.692,-0.45 2.727,-1 1.034,-0.55 2.093,-1 2.353,-1 0.261,0 1.376,-0.442 2.479,-0.983 1.103,-0.54 2.636,-1.257 3.406,-1.592 0.77,-0.335 1.67,-0.793 2,-1.017 0.33,-0.225 1.05,-0.588 1.6,-0.808 0.55,-0.219 1.9,-0.935 3,-1.59 1.1,-0.655 2.758,-1.561 3.683,-2.012 0.926,-0.452 1.797,-1.003 1.934,-1.226 0.138,-0.223 0.956,-0.688 1.817,-1.032 0.861,-0.345 1.566,-0.765 1.566,-0.935 0,-0.169 0.547,-0.534 1.215,-0.811 0.669,-0.277 1.395,-0.839 1.614,-1.249 0.22,-0.41 0.638,-0.745 0.93,-0.745 0.292,0 1.231,-0.534 2.086,-1.186 0.855,-0.653 1.986,-1.508 2.512,-1.9 0.527,-0.393 1.38,-1.109 1.896,-1.592 0.517,-0.483 1.195,-1.023 1.508,-1.2 0.312,-0.177 2.044,-1.582 3.848,-3.122 5.27,-4.498 10.449,-11.008 15.121,-19.008 1.419,-2.43 0.688,-1.896 -0.97,0.708 -0.805,1.265 -2.071,2.894 -2.812,3.619 -0.741,0.726 -1.348,1.581 -1.348,1.9 0,0.32 -0.149,0.581 -0.33,0.581 -0.182,0 -1.307,1.209 -2.5,2.686 -2.171,2.688 -8.053,8.632 -10.404,10.514 -0.686,0.55 -1.633,1.36 -2.103,1.8 -1.142,1.069 -2.993,2.414 -4.463,3.243 -0.66,0.372 -1.435,1.009 -1.723,1.417 -0.287,0.407 -0.781,0.74 -1.096,0.74 -0.316,0 -0.799,0.36 -1.074,0.8 -0.275,0.44 -0.81,0.8 -1.189,0.8 -0.38,0 -1.305,0.54 -2.057,1.2 -0.752,0.66 -1.658,1.2 -2.014,1.2 -0.356,0 -0.989,0.342 -1.408,0.761 -0.418,0.418 -1.183,0.888 -1.7,1.045 -0.516,0.157 -1.299,0.603 -1.739,0.991 -0.44,0.387 -1.474,0.92 -2.297,1.184 -0.823,0.263 -1.633,0.71 -1.8,0.992 -0.167,0.283 -0.964,0.729 -1.771,0.991 -0.807,0.262 -1.673,0.724 -1.923,1.025 -0.25,0.302 -1.159,0.667 -2.02,0.813 -0.861,0.145 -1.982,0.592 -2.491,0.993 -0.51,0.4 -1.73,0.942 -2.712,1.204 -0.982,0.261 -2.061,0.72 -2.396,1.019 -0.336,0.299 -1.416,0.66 -2.4,0.803 -0.985,0.142 -2.283,0.605 -2.886,1.028 -0.603,0.423 -1.593,0.848 -2.2,0.944 -0.607,0.095 -1.773,0.278 -2.591,0.406 -0.818,0.128 -1.742,0.487 -2.053,0.798 -0.311,0.312 -2.057,0.753 -3.879,0.982 -1.822,0.228 -3.712,0.677 -4.201,0.998 -0.532,0.348 -2.814,0.749 -5.669,0.997 -2.629,0.229 -5.575,0.722 -6.546,1.096 -2.701,1.041 -29.739,1.069 -32.266,0.033 -0.944,-0.387 -3.874,-0.896 -6.579,-1.143 -2.724,-0.248 -5.248,-0.688 -5.717,-0.995 -0.462,-0.303 -2.254,-0.747 -3.981,-0.987 -1.727,-0.24 -3.542,-0.7 -4.033,-1.022 -0.491,-0.322 -2.037,-0.769 -3.436,-0.995 -1.399,-0.225 -2.829,-0.668 -3.179,-0.985 -0.35,-0.316 -1.702,-0.785 -3.005,-1.042 -1.303,-0.256 -2.499,-0.682 -2.658,-0.945 -0.159,-0.263 -1.149,-0.711 -2.2,-0.995 -1.051,-0.284 -2.181,-0.742 -2.511,-1.018 -0.33,-0.276 -1.344,-0.7 -2.253,-0.942 -0.91,-0.242 -1.876,-0.707 -2.147,-1.034 -0.271,-0.327 -1.213,-0.788 -2.093,-1.025 -0.881,-0.237 -1.973,-0.778 -2.429,-1.203 -0.456,-0.425 -1.12,-0.772 -1.476,-0.772 -0.355,0 -1.257,-0.45 -2.002,-1 -0.745,-0.55 -1.564,-1 -1.819,-1 -0.255,0 -0.948,-0.448 -1.54,-0.997 -0.591,-0.548 -1.562,-1.117 -2.158,-1.264 -0.596,-0.148 -1.318,-0.599 -1.606,-1.004 -0.287,-0.404 -0.756,-0.735 -1.041,-0.735 -0.286,0 -0.99,-0.436 -1.565,-0.969 -0.575,-0.533 -1.456,-1.099 -1.958,-1.257 -0.502,-0.159 -1.148,-0.623 -1.436,-1.031 -0.287,-0.409 -0.772,-0.743 -1.077,-0.743 -0.305,0 -0.79,-0.315 -1.077,-0.7 -0.288,-0.385 -1.423,-1.365 -2.523,-2.178 -2.547,-1.881 -4.001,-3.089 -5.084,-4.222 -0.473,-0.495 -1.102,-0.9 -1.398,-0.9 -0.296,0 -0.709,-0.45 -0.918,-1 -0.209,-0.55 -0.568,-1 -0.797,-1 -0.229,0 -2.348,-1.985 -4.71,-4.412 -5.556,-5.71 -6.493,-6.745 -6.493,-7.177 0,-0.197 -0.36,-0.471 -0.8,-0.611 -0.44,-0.14 -0.8,-0.489 -0.8,-0.777 0,-1.232 -5.722,-7.141 -6.328,-6.535 -0.728,0.728 -0.56,2.674 0.328,3.803 0.44,0.559 0.8,1.418 0.8,1.909 0,0.491 0.343,1.328 0.761,1.86 0.419,0.533 0.965,1.721 1.212,2.641 0.248,0.92 0.679,1.813 0.959,1.986 0.279,0.172 0.734,1.088 1.01,2.034 0.277,0.947 0.752,1.817 1.056,1.934 0.304,0.116 0.663,0.712 0.797,1.324 0.135,0.612 0.586,1.479 1.003,1.926 0.416,0.447 1.044,1.417 1.394,2.154 1.218,2.567 2.412,4.409 3.108,4.793 0.385,0.213 0.7,0.717 0.7,1.119 0,0.402 0.283,0.966 0.629,1.253 0.346,0.287 0.98,1.21 1.408,2.049 0.429,0.84 0.96,1.527 1.181,1.527 0.221,0 0.575,0.455 0.786,1.01 0.211,0.556 0.657,1.115 0.99,1.243 0.333,0.128 0.606,0.467 0.606,0.754 0,0.634 4.239,5.77 6.648,8.053 0.964,0.914 1.752,1.769 1.752,1.9 0,0.416 4.78,5.04 5.21,5.04 0.225,0 0.581,0.45 0.79,1 0.209,0.55 0.655,1 0.99,1 0.336,0 0.61,0.165 0.61,0.366 0,1.223 91.533,92.034 92.765,92.034 1.542,0 2.835,-0.624 2.835,-1.367 0,-0.297 0.373,-0.637 0.83,-0.757 0.456,-0.119 0.927,-0.59 1.046,-1.046 0.12,-0.457 0.47,-0.83 0.779,-0.83 0.309,0 0.767,-0.45 1.018,-1 0.25,-0.55 0.7,-1 1,-1 0.299,0 0.742,-0.435 0.984,-0.966 0.242,-0.531 0.792,-1.058 1.221,-1.17 0.43,-0.113 0.873,-0.556 0.986,-0.986 0.112,-0.429 0.639,-0.979 1.17,-1.221 0.531,-0.242 0.966,-0.714 0.966,-1.048 0,-0.335 0.274,-0.609 0.609,-0.609 0.334,0 0.812,-0.447 1.06,-0.992 0.249,-0.546 0.776,-1.095 1.171,-1.221 0.396,-0.125 0.827,-0.57 0.96,-0.987 0.133,-0.417 0.583,-0.867 1,-1 0.417,-0.133 0.862,-0.564 0.987,-0.96 0.126,-0.395 0.675,-0.922 1.221,-1.171 0.545,-0.248 0.992,-0.726 0.992,-1.06 0,-0.335 0.274,-0.609 0.609,-0.609 0.334,0 0.812,-0.447 1.06,-0.992 0.249,-0.546 0.776,-1.095 1.171,-1.221 0.396,-0.125 0.822,-0.551 0.947,-0.947 0.126,-0.395 0.675,-0.922 1.221,-1.171 0.545,-0.248 0.992,-0.714 0.992,-1.033 0,-0.32 0.351,-0.693 0.78,-0.83 0.428,-0.136 0.89,-0.598 1.026,-1.026 0.137,-0.429 0.51,-0.78 0.83,-0.78 0.319,0 0.785,-0.447 1.033,-0.992 0.249,-0.546 0.776,-1.095 1.171,-1.221 0.396,-0.125 0.827,-0.57 0.96,-0.987 0.133,-0.417 0.583,-0.867 1,-1 0.417,-0.133 0.867,-0.583 1,-1 0.133,-0.417 0.583,-0.867 1,-1 0.417,-0.133 0.862,-0.564 0.987,-0.96 0.126,-0.395 0.675,-0.922 1.221,-1.171 0.545,-0.248 0.992,-0.726 0.992,-1.06 0,-0.335 0.274,-0.609 0.609,-0.609 0.334,0 0.812,-0.447 1.06,-0.992 0.249,-0.546 0.776,-1.095 1.171,-1.221 0.396,-0.125 0.822,-0.551 0.947,-0.947 0.126,-0.395 0.675,-0.922 1.221,-1.171 0.545,-0.248 0.992,-0.726 0.992,-1.06 0,-0.335 0.274,-0.609 0.609,-0.609 0.334,0 0.812,-0.447 1.06,-0.992 0.249,-0.546 0.776,-1.095 1.171,-1.221 0.396,-0.125 0.827,-0.57 0.96,-0.987 0.133,-0.417 0.583,-0.867 1,-1 0.417,-0.133 0.867,-0.583 1,-1 0.133,-0.417 0.583,-0.867 1,-1 0.417,-0.133 0.867,-0.583 1,-1 0.133,-0.417 0.583,-0.867 1,-1 0.417,-0.133 0.867,-0.583 1,-1 0.133,-0.417 0.583,-0.867 1,-1 0.417,-0.133 0.867,-0.583 1,-1 0.133,-0.417 0.583,-0.867 1,-1 0.417,-0.133 0.867,-0.583 1,-1 0.133,-0.417 0.583,-0.867 1,-1 0.417,-0.133 0.87,-0.592 1.006,-1.02 0.137,-0.429 0.499,-0.78 0.807,-0.78 0.307,0 0.753,-0.363 0.99,-0.806 0.238,-0.444 1.068,-1.389 1.845,-2.1 0.777,-0.712 1.624,-1.528 1.882,-1.813 0.259,-0.286 0.704,-0.736 0.989,-1 0.286,-0.265 0.736,-0.715 1,-1 0.265,-0.286 0.715,-0.736 1,-1 0.286,-0.265 0.736,-0.715 1,-1 0.265,-0.286 0.715,-0.736 1,-1 0.286,-0.265 0.736,-0.715 1,-1 0.265,-0.286 0.715,-0.736 1,-1 0.286,-0.265 0.736,-0.715 1,-1 0.265,-0.286 0.715,-0.736 1,-1 0.286,-0.265 0.736,-0.715 1,-1 0.265,-0.286 0.715,-0.736 1,-1 0.286,-0.265 0.736,-0.708 1,-0.985 0.54,-0.566 3.202,-3.234 3.977,-3.985 0.774,-0.75 1.477,-1.459 2.015,-2.03 0.269,-0.286 0.723,-0.736 1.008,-1 0.286,-0.265 0.736,-0.715 1,-1 0.265,-0.286 0.715,-0.736 1,-1 0.286,-0.265 0.736,-0.71 1,-0.99 0.265,-0.28 2.551,-2.571 5.081,-5.092 2.53,-2.521 4.733,-4.722 4.895,-4.891 0.162,-0.17 1.197,-1.249 2.3,-2.399 1.103,-1.151 2.005,-2.19 2.005,-2.309 0,-0.119 0.855,-1.102 1.9,-2.183 3.077,-3.184 3.547,-3.75 4.251,-5.117 0.368,-0.715 0.849,-1.3 1.068,-1.3 0.219,0 0.619,-0.486 0.89,-1.081 0.27,-0.595 0.909,-1.54 1.419,-2.1 0.51,-0.56 1.169,-1.289 1.464,-1.619 0.294,-0.33 0.774,-1.14 1.065,-1.8 0.292,-0.66 0.848,-1.435 1.237,-1.723 0.388,-0.287 0.706,-0.768 0.706,-1.069 0,-0.301 0.438,-1.068 0.974,-1.704 0.536,-0.637 1.092,-1.628 1.236,-2.202 0.144,-0.574 0.498,-1.135 0.786,-1.245 0.288,-0.111 0.742,-0.864 1.01,-1.675 0.268,-0.811 0.816,-1.804 1.218,-2.206 0.402,-0.402 0.849,-1.359 0.993,-2.126 0.144,-0.767 0.504,-1.488 0.8,-1.601 0.296,-0.114 0.762,-0.981 1.036,-1.928 0.274,-0.946 0.812,-2.134 1.195,-2.64 0.383,-0.505 0.823,-1.495 0.976,-2.2 0.154,-0.704 0.596,-1.684 0.982,-2.176 0.386,-0.493 0.829,-1.745 0.985,-2.783 0.156,-1.038 0.534,-2.076 0.842,-2.305 0.307,-0.229 0.731,-1.317 0.943,-2.417 0.212,-1.1 0.729,-2.665 1.15,-3.478 0.421,-0.814 0.894,-2.614 1.05,-4 0.156,-1.387 0.558,-2.826 0.893,-3.196 0.356,-0.394 0.764,-2.058 0.982,-4 0.205,-1.83 0.652,-3.829 0.994,-4.444 0.411,-0.739 0.752,-3.04 1.007,-6.8 0.212,-3.125 0.647,-6.774 0.967,-8.108 0.807,-3.368 0.812,-18.547 0.007,-21.948 -0.316,-1.334 -0.752,-5.002 -0.97,-8.15 -0.265,-3.84 -0.593,-6.025 -0.995,-6.64 -0.331,-0.504 -0.722,-2.248 -0.87,-3.876 -0.149,-1.628 -0.603,-3.68 -1.01,-4.56 -0.407,-0.88 -0.86,-2.59 -1.006,-3.8 -0.146,-1.21 -0.589,-2.768 -0.984,-3.461 -0.395,-0.694 -0.924,-2.255 -1.177,-3.469 -0.252,-1.215 -0.709,-2.417 -1.016,-2.672 -0.308,-0.255 -0.678,-1.261 -0.825,-2.235 -0.146,-0.975 -0.598,-2.195 -1.005,-2.712 -0.406,-0.517 -0.915,-1.725 -1.131,-2.685 -0.216,-0.959 -0.634,-1.929 -0.93,-2.155 -0.296,-0.226 -0.767,-1.186 -1.045,-2.132 -0.279,-0.947 -0.749,-1.814 -1.045,-1.928 -0.296,-0.113 -0.656,-0.834 -0.8,-1.601 -0.144,-0.767 -0.586,-1.719 -0.981,-2.114 -0.396,-0.396 -0.836,-1.182 -0.978,-1.747 -0.142,-0.565 -0.708,-1.562 -1.258,-2.216 -0.55,-0.654 -1,-1.45 -1,-1.769 0,-0.319 -0.36,-0.906 -0.8,-1.304 -0.44,-0.398 -0.8,-0.974 -0.8,-1.28 0,-0.306 -0.436,-0.992 -0.969,-1.525 -0.533,-0.533 -1.08,-1.319 -1.216,-1.747 -0.136,-0.428 -0.773,-1.469 -1.417,-2.313 -0.644,-0.844 -1.492,-1.966 -1.884,-2.492 -0.393,-0.527 -1.119,-1.39 -1.614,-1.918 -0.495,-0.529 -0.9,-1.111 -0.9,-1.294 0,-0.438 -4.436,-5.732 -6.766,-8.075 -1.009,-1.014 -2.374,-2.495 -3.034,-3.291 -0.66,-0.796 -1.431,-1.452 -1.713,-1.456 -0.281,-0.005 -0.627,-0.324 -0.767,-0.709 -0.262,-0.723 -2.697,-3.3 -3.118,-3.3 -0.13,0 -1.198,-0.945 -2.373,-2.1 -2.42,-2.379 -2.907,-2.788 -4.513,-3.787 -0.63,-0.392 -1.498,-1.033 -1.931,-1.423 -1.906,-1.723 -3.123,-2.69 -3.385,-2.69 -0.156,0 -0.767,-0.448 -1.359,-0.997 -0.591,-0.548 -1.517,-1.107 -2.058,-1.243 -0.541,-0.136 -0.983,-0.48 -0.983,-0.764 0,-0.285 -0.542,-0.707 -1.205,-0.938 -0.663,-0.231 -1.312,-0.697 -1.442,-1.035 -0.13,-0.339 -0.937,-0.826 -1.794,-1.083 -0.858,-0.256 -1.559,-0.625 -1.559,-0.818 0,-0.193 -0.768,-0.679 -1.706,-1.082 -0.938,-0.402 -1.95,-1.025 -2.249,-1.385 -0.298,-0.36 -0.846,-0.655 -1.216,-0.655 -0.371,0 -1.284,-0.45 -2.029,-1 -0.745,-0.55 -1.656,-1 -2.024,-1 -0.367,0 -1.145,-0.375 -1.728,-0.834 -0.583,-0.459 -1.73,-1.019 -2.548,-1.245 -0.818,-0.226 -1.893,-0.729 -2.389,-1.12 -0.496,-0.39 -1.698,-0.828 -2.671,-0.974 -0.973,-0.146 -1.864,-0.512 -1.979,-0.813 -0.116,-0.3 -1.257,-0.761 -2.536,-1.022 -1.279,-0.261 -2.614,-0.731 -2.967,-1.043 -0.354,-0.313 -1.794,-0.766 -3.2,-1.008 -1.407,-0.241 -2.838,-0.683 -3.179,-0.981 -0.342,-0.298 -2.052,-0.753 -3.8,-1.011 -1.749,-0.259 -3.57,-0.724 -4.047,-1.034 -0.477,-0.311 -2.727,-0.743 -5,-0.96 -2.273,-0.218 -4.762,-0.679 -5.532,-1.026 -1.363,-0.613 -2.596,-0.691 -16.4,-1.034 -2.09,-0.052 -7.85,0.006 -12.8,0.13 m -39.093,46.276 c -0.711,0.384 -2.331,1.32 -3.6,2.079 -1.269,0.76 -2.788,1.66 -3.375,2 -5.902,3.423 -14.287,10.612 -19.132,16.403 -0.99,1.183 -2.216,2.616 -2.725,3.184 -1.361,1.521 -5.275,6.786 -5.275,7.098 0,0.147 -0.275,0.553 -0.611,0.901 -1.001,1.038 -2.538,3.338 -3.231,4.834 -0.356,0.77 -0.816,1.506 -1.022,1.635 -0.369,0.232 -1.202,1.634 -2.595,4.365 -0.393,0.77 -1.011,1.85 -1.372,2.4 -0.362,0.55 -0.891,1.72 -1.177,2.6 -0.285,0.88 -0.841,2.05 -1.236,2.6 -0.927,1.29 -1.398,3.2 -0.791,3.2 0.249,0 0.673,-0.493 0.944,-1.095 0.27,-0.601 0.796,-1.401 1.169,-1.777 0.372,-0.376 0.795,-1.311 0.939,-2.078 0.144,-0.767 0.504,-1.488 0.8,-1.601 0.296,-0.114 0.765,-0.981 1.041,-1.928 0.277,-0.946 0.666,-1.834 0.866,-1.972 0.487,-0.335 2.067,-2.951 3.05,-5.049 0.439,-0.935 0.97,-1.7 1.181,-1.7 0.211,0 0.604,-0.675 0.875,-1.5 0.271,-0.825 0.825,-1.735 1.231,-2.023 0.407,-0.287 0.739,-0.718 0.739,-0.958 0,-0.239 0.371,-0.814 0.824,-1.277 1.616,-1.652 3.576,-4.327 3.576,-4.88 0,-0.309 0.24,-0.562 0.532,-0.562 0.293,0 0.781,-0.464 1.085,-1.031 0.303,-0.567 0.873,-1.203 1.267,-1.414 0.394,-0.211 0.716,-0.569 0.716,-0.796 0,-0.455 8.578,-9.159 9.027,-9.159 0.155,0 0.752,-0.452 1.327,-1.004 2.393,-2.299 2.747,-2.596 3.088,-2.598 0.197,-0.001 1.597,-0.991 3.111,-2.2 1.515,-1.209 2.903,-2.198 3.086,-2.198 0.183,0 0.924,-0.511 1.647,-1.135 0.723,-0.624 2.177,-1.56 3.231,-2.079 1.839,-0.906 3.163,-1.987 2.432,-1.985 -0.192,0 -0.931,0.315 -1.642,0.7 m 44.97,44.755 c -0.17,0.17 -2.375,0.517 -4.9,0.771 -2.998,0.301 -4.831,0.673 -5.283,1.073 -0.382,0.337 -1.454,0.737 -2.382,0.89 -0.929,0.152 -2.129,0.623 -2.668,1.047 -0.538,0.423 -1.548,0.884 -2.243,1.023 -0.696,0.139 -1.474,0.587 -1.729,0.996 -0.255,0.409 -0.775,0.744 -1.154,0.744 -0.38,0 -1.305,0.54 -2.057,1.2 -0.752,0.66 -1.573,1.2 -1.826,1.2 -0.253,0 -0.566,0.277 -0.696,0.615 -0.13,0.338 -0.754,0.883 -1.387,1.21 -0.634,0.328 -1.152,0.861 -1.152,1.185 0,0.325 -0.201,0.59 -0.447,0.59 -0.452,0 -3.553,2.911 -3.553,3.335 0,0.126 -0.463,0.732 -1.028,1.347 -0.566,0.615 -1.356,1.478 -1.756,1.918 -0.401,0.44 -0.843,1.181 -0.982,1.647 -0.14,0.466 -0.61,1.169 -1.044,1.562 -0.435,0.393 -0.79,1.04 -0.79,1.437 0,0.398 -0.375,1.072 -0.834,1.5 -0.458,0.427 -1.009,1.556 -1.223,2.509 -0.214,0.953 -0.657,2.03 -0.985,2.392 -0.328,0.362 -0.787,1.886 -1.021,3.387 -0.234,1.5 -0.694,3.14 -1.024,3.642 -0.658,1.005 -1.213,8.475 -0.762,10.27 0.372,1.482 1.932,2.107 6.049,2.424 1.98,0.153 4.41,0.565 5.4,0.916 2.572,0.913 15.586,0.926 19,0.019 1.32,-0.35 3.75,-0.751 5.4,-0.889 1.65,-0.139 3.585,-0.343 4.3,-0.453 1.515,-0.232 1.845,0.717 0.5,1.437 -0.44,0.235 -0.8,0.685 -0.8,1 0,0.315 -0.339,0.754 -0.754,0.976 -0.97,0.518 -2.599,3.224 -1.942,3.224 0.611,0 7.496,-7.187 7.496,-7.824 0,-1.354 -4.607,-1.498 -6.179,-0.193 -2.678,2.222 -32.433,1.808 -36.094,-0.503 l -1.593,-1.006 0.303,-1.937 c 1.326,-8.474 1.988,-11.805 2.504,-12.607 0.33,-0.511 0.722,-1.599 0.872,-2.417 0.149,-0.818 0.617,-1.887 1.04,-2.374 0.423,-0.488 0.882,-1.348 1.02,-1.913 0.138,-0.564 0.598,-1.476 1.021,-2.026 0.424,-0.55 1.342,-1.9 2.041,-3 1.356,-2.134 3.982,-5.142 6.255,-7.164 0.764,-0.68 1.872,-1.731 2.46,-2.336 0.589,-0.605 1.255,-1.1 1.48,-1.1 0.225,0 0.917,-0.423 1.539,-0.939 1.215,-1.009 2.702,-1.868 4.931,-2.848 0.77,-0.338 2.04,-0.96 2.822,-1.381 0.783,-0.422 2.133,-0.894 3,-1.05 0.868,-0.156 2.31,-0.61 3.204,-1.009 3.106,-1.386 20.626,-1.397 22.335,-0.014 0.242,0.195 1.601,0.65 3.022,1.011 1.42,0.361 2.86,0.899 3.2,1.196 0.339,0.296 1.06,0.675 1.6,0.84 1.425,0.436 5.866,2.93 6.432,3.612 0.266,0.32 0.721,0.582 1.011,0.582 0.53,0 8.57,7.855 9.869,9.643 2.182,3.002 5.505,9.244 5.505,10.34 0,0.287 0.338,1.084 0.75,1.77 0.413,0.686 0.868,2.184 1.012,3.329 0.143,1.145 0.529,2.843 0.858,3.774 0.774,2.194 1.164,9.128 0.672,11.944 -1.111,6.351 -1.841,9.539 -2.473,10.8 -0.386,0.77 -0.822,1.895 -0.968,2.5 -0.147,0.605 -0.938,2.274 -1.759,3.708 -0.82,1.434 -1.792,3.16 -2.158,3.834 -0.367,0.675 -0.946,1.527 -1.287,1.893 -0.341,0.366 -1.711,1.904 -3.044,3.417 -1.334,1.514 -3.013,3.224 -3.733,3.8 -0.719,0.577 -1.569,1.27 -1.889,1.542 -1.784,1.516 -3.154,2.49 -4.581,3.256 -0.88,0.472 -1.87,1.018 -2.2,1.214 -1.89,1.12 -5.005,2.436 -6.303,2.663 -0.823,0.145 -1.903,0.518 -2.4,0.829 -2.875,1.803 -21.35,1.778 -24.853,-0.033 -1.764,-0.913 -4.894,-1.558 -3.868,-0.798 0.428,0.316 0.942,0.575 1.143,0.575 0.201,0 0.871,0.425 1.488,0.945 0.854,0.718 1.828,1.012 4.058,1.226 1.614,0.155 3.914,0.562 5.111,0.906 2.466,0.707 8.839,0.571 10.318,-0.22 0.476,-0.255 2.27,-0.575 3.986,-0.712 1.801,-0.143 3.712,-0.557 4.52,-0.981 0.77,-0.403 2.144,-0.921 3.053,-1.151 0.91,-0.23 1.867,-0.676 2.128,-0.99 0.261,-0.314 1.047,-0.696 1.747,-0.849 0.699,-0.153 1.781,-0.704 2.403,-1.226 0.622,-0.521 1.376,-0.948 1.677,-0.948 0.301,0 0.782,-0.332 1.069,-0.737 0.288,-0.405 0.723,-0.81 0.967,-0.9 1.695,-0.622 8.843,-7.634 9.202,-9.025 0.122,-0.474 0.567,-0.953 0.988,-1.063 0.421,-0.11 0.766,-0.544 0.766,-0.965 0,-0.421 0.432,-1.141 0.96,-1.6 0.528,-0.46 1.079,-1.377 1.224,-2.039 0.146,-0.662 0.514,-1.3 0.819,-1.417 0.306,-0.117 0.759,-0.968 1.007,-1.892 0.249,-0.923 0.781,-2.147 1.183,-2.72 0.401,-0.573 0.849,-2.031 0.995,-3.24 0.146,-1.209 0.569,-2.533 0.939,-2.942 1.009,-1.115 1.012,-19.452 0.004,-21.26 -0.368,-0.66 -0.864,-2.266 -1.101,-3.569 -0.237,-1.303 -0.67,-2.653 -0.961,-3 -0.292,-0.347 -0.752,-1.406 -1.022,-2.352 -0.271,-0.947 -0.734,-1.814 -1.03,-1.928 -0.296,-0.113 -0.649,-0.795 -0.784,-1.515 -0.135,-0.719 -0.692,-1.728 -1.239,-2.242 -0.547,-0.513 -0.994,-1.171 -0.994,-1.46 0,-0.29 -0.36,-0.752 -0.8,-1.027 -0.44,-0.275 -0.8,-0.697 -0.8,-0.939 0,-0.824 -8.866,-9.368 -9.72,-9.368 -0.268,0 -0.712,-0.36 -0.987,-0.8 -0.275,-0.44 -0.744,-0.8 -1.042,-0.8 -0.299,0 -1.009,-0.366 -1.578,-0.814 -0.57,-0.448 -1.629,-1.019 -2.354,-1.269 -0.726,-0.25 -1.769,-0.767 -2.319,-1.149 -0.55,-0.381 -1.72,-0.815 -2.6,-0.964 -0.88,-0.15 -1.916,-0.555 -2.302,-0.902 -1.058,-0.949 -16.466,-2.601 -17.221,-1.846"
                stroke="none"
                fill="#aec9ce"
                fill-rule="evenodd" />
        <path
                id="path4"
                d="m 191.8,80.241 c -0.88,0.088 -3.13,0.422 -5,0.742 -1.87,0.321 -4.66,0.794 -6.2,1.051 -1.54,0.258 -3.395,0.71 -4.123,1.006 -0.728,0.296 -2.23,0.659 -3.338,0.806 -1.108,0.147 -3.753,0.894 -5.877,1.659 -2.124,0.766 -4.852,1.747 -6.062,2.181 -1.21,0.433 -2.38,0.935 -2.6,1.115 -0.22,0.18 -1.21,0.641 -2.2,1.023 -0.99,0.383 -2.25,1.103 -2.8,1.6 -0.55,0.497 -1.81,1.313 -2.8,1.813 -0.99,0.5 -2.391,1.416 -3.114,2.036 -0.723,0.62 -1.518,1.127 -1.767,1.127 -0.249,0 -0.349,0.103 -0.223,0.229 0.296,0.296 2.704,-0.941 2.704,-1.389 0,-0.187 0.534,-0.447 1.188,-0.577 0.653,-0.131 1.573,-0.624 2.044,-1.095 0.471,-0.471 1.512,-1.035 2.313,-1.252 0.8,-0.218 1.725,-0.617 2.055,-0.887 0.33,-0.27 1.375,-0.712 2.321,-0.982 0.947,-0.271 1.814,-0.733 1.927,-1.028 0.113,-0.295 1.049,-0.661 2.079,-0.813 1.03,-0.153 2.503,-0.592 3.273,-0.977 2.586,-1.292 6.574,-2.483 10.107,-3.017 1.929,-0.291 3.938,-0.812 4.465,-1.157 0.638,-0.418 2.733,-0.768 6.292,-1.051 2.935,-0.233 6.326,-0.586 7.536,-0.785 3.367,-0.552 10.174,-0.47 14.4,0.175 2.09,0.318 5.33,0.702 7.2,0.853 1.87,0.15 3.778,0.52 4.241,0.821 0.462,0.3 2.442,0.738 4.4,0.972 1.957,0.234 3.932,0.664 4.388,0.956 0.456,0.291 1.626,0.751 2.6,1.022 0.974,0.271 2.491,0.82 3.371,1.22 0.88,0.4 2.354,0.847 3.275,0.992 0.922,0.145 1.764,0.495 1.872,0.777 0.108,0.282 0.885,0.737 1.725,1.011 0.84,0.274 1.941,0.82 2.447,1.213 0.505,0.392 1.48,0.837 2.166,0.988 0.687,0.15 1.62,0.62 2.074,1.043 0.454,0.423 1.26,0.878 1.791,1.011 0.531,0.134 1.281,0.558 1.667,0.944 0.386,0.386 1.241,0.82 1.9,0.965 0.659,0.145 1.944,0.951 2.856,1.793 0.911,0.841 2.775,2.215 4.142,3.053 1.367,0.839 2.72,1.85 3.008,2.248 0.287,0.398 0.726,0.724 0.975,0.724 0.556,0 13.689,13.24 14.628,14.747 0.371,0.595 1.004,1.435 1.408,1.868 0.403,0.432 1.443,1.91 2.311,3.285 0.868,1.375 1.752,2.5 1.966,2.5 0.214,0 0.389,0.271 0.389,0.603 0,0.331 0.441,0.986 0.98,1.455 0.539,0.468 1.099,1.412 1.245,2.097 0.145,0.685 0.496,1.515 0.78,1.845 0.283,0.33 0.805,1.302 1.159,2.159 0.355,0.857 0.883,1.757 1.175,2 0.291,0.243 0.741,1.187 0.999,2.1 0.258,0.912 0.738,1.761 1.066,1.887 0.328,0.126 0.596,0.556 0.596,0.957 0,0.4 0.376,1.441 0.836,2.312 0.459,0.872 1.097,2.664 1.418,3.983 0.32,1.319 0.816,2.759 1.102,3.2 0.285,0.441 0.641,1.612 0.79,2.602 0.149,0.99 0.615,2.7 1.035,3.8 0.42,1.1 0.955,3.728 1.188,5.84 0.234,2.113 0.725,4.633 1.093,5.6 1.049,2.763 1.03,26.745 -0.023,28.724 -0.411,0.773 -0.927,3.111 -1.191,5.4 -0.256,2.22 -0.666,4.396 -0.911,4.836 -0.245,0.44 -0.674,1.88 -0.953,3.2 -0.279,1.32 -0.816,2.94 -1.195,3.6 -0.378,0.66 -0.798,1.92 -0.935,2.8 -0.136,0.88 -1.147,3.4 -2.248,5.6 -1.1,2.2 -2.002,4.405 -2.003,4.9 -0.002,0.495 -0.161,0.9 -0.354,0.9 -0.193,0 -0.726,0.872 -1.184,1.938 -0.459,1.066 -1.111,2.168 -1.45,2.449 -0.338,0.281 -0.615,0.824 -0.615,1.207 0,0.383 -0.54,1.375 -1.2,2.206 -0.66,0.831 -1.2,1.665 -1.2,1.855 0,0.19 -0.36,0.705 -0.8,1.145 -1.254,1.254 -0.936,1.681 0.356,0.477 3.038,-2.831 9.406,-14.573 11.756,-21.677 0.328,-0.99 0.789,-2.34 1.026,-3 0.94,-2.626 2.44,-8.131 2.834,-10.4 0.229,-1.32 0.669,-3.308 0.979,-4.418 1.881,-6.759 1.672,-29.532 -0.338,-36.769 -0.308,-1.107 -0.684,-2.999 -0.836,-4.205 -0.153,-1.205 -0.543,-2.915 -0.869,-3.8 -0.325,-0.884 -0.914,-2.778 -1.309,-4.208 -0.901,-3.258 -1.871,-6.027 -3.012,-8.6 -2.225,-5.018 -6.905,-13.886 -8.673,-16.435 -3.611,-5.205 -4.649,-6.643 -5.248,-7.267 -0.367,-0.384 -1.319,-1.508 -2.115,-2.498 -4.83,-6.01 -16.427,-16.557 -21.769,-19.8 -0.725,-0.44 -1.901,-1.16 -2.613,-1.6 -4.758,-2.942 -13.876,-7.517 -16.032,-8.044 -0.625,-0.154 -1.764,-0.611 -2.531,-1.017 -0.767,-0.407 -1.667,-0.743 -2,-0.748 -0.333,-0.005 -1.416,-0.379 -2.406,-0.832 -0.99,-0.453 -3.135,-1.082 -4.766,-1.397 -1.632,-0.316 -3.162,-0.732 -3.4,-0.926 -0.239,-0.193 -2.144,-0.565 -4.234,-0.825 -2.09,-0.26 -4.79,-0.741 -6,-1.069 -2.152,-0.584 -17.525,-1.087 -21.4,-0.701 M 97.908,90.574 c -1.261,1.334 -3.286,3.481 -4.5,4.769 -1.215,1.289 -2.208,2.585 -2.208,2.881 0,0.295 -0.258,0.681 -0.573,0.857 -0.673,0.376 -1.918,2.085 -4.24,5.819 -0.923,1.485 -1.814,2.7 -1.98,2.7 -0.165,0 -0.689,0.855 -1.164,1.9 -1.074,2.365 -1.728,3.489 -2.574,4.423 -0.362,0.401 -0.867,1.347 -1.121,2.103 -0.254,0.756 -0.699,1.651 -0.989,1.989 -0.291,0.338 -0.808,1.283 -1.149,2.1 -0.341,0.817 -0.791,1.485 -0.999,1.485 -0.209,0 -0.602,0.765 -0.875,1.7 -0.274,0.935 -0.616,1.79 -0.761,1.9 -0.415,0.315 -1.575,2.708 -1.575,3.249 0,0.268 -0.27,0.786 -0.6,1.15 -0.329,0.365 -0.806,1.729 -1.058,3.032 -0.252,1.303 -0.689,2.639 -0.97,2.969 -0.282,0.33 -0.735,1.5 -1.008,2.6 -0.273,1.1 -0.823,2.634 -1.223,3.408 -0.399,0.775 -0.905,2.845 -1.123,4.6 -1.343,10.81 -1.359,11.203 -0.69,16.695 0.354,2.913 0.802,7.141 0.994,9.394 0.228,2.685 0.56,4.339 0.961,4.8 0.338,0.387 0.737,1.693 0.889,2.903 0.152,1.21 0.597,2.748 0.989,3.417 0.393,0.669 0.839,2.161 0.992,3.316 0.3,2.262 0.971,4.067 1.511,4.067 0.185,0 0.336,0.436 0.336,0.969 0,0.533 0.427,1.478 0.948,2.1 0.522,0.622 1.078,1.725 1.236,2.45 0.158,0.726 0.632,1.534 1.052,1.796 0.42,0.263 0.764,0.758 0.764,1.102 0,0.718 3.07,5.583 3.523,5.583 0.166,0 0.515,0.495 0.777,1.1 0.261,0.605 1.111,1.91 1.888,2.9 0.777,0.99 1.62,2.202 1.873,2.692 0.253,0.491 0.793,0.998 1.2,1.127 0.406,0.129 0.739,0.489 0.739,0.799 0,0.31 0.45,0.858 1,1.219 0.55,0.36 1,0.904 1,1.209 0,0.305 0.169,0.554 0.375,0.554 0.206,0 2.188,1.8 4.405,4 2.217,2.2 4.202,4 4.41,4 0.208,0 0.706,0.351 1.105,0.78 1.031,1.106 3.281,2.709 4.805,3.422 0.715,0.335 1.3,0.767 1.3,0.961 0,0.601 1.22,0.854 2.029,0.421 1.045,-0.559 1.063,-3.5 0.03,-4.83 -0.408,-0.525 -1.051,-1.897 -1.431,-3.049 -0.379,-1.153 -0.834,-2.185 -1.012,-2.295 -0.177,-0.11 -0.445,-1.183 -0.595,-2.384 -0.151,-1.202 -0.595,-2.599 -0.987,-3.105 -0.393,-0.507 -0.814,-1.683 -0.935,-2.614 -0.122,-0.931 -0.579,-2.461 -1.016,-3.4 -0.503,-1.08 -0.952,-3.341 -1.222,-6.152 -0.235,-2.445 -0.702,-5.235 -1.038,-6.2 -0.9,-2.585 -0.902,-22.667 -0.003,-25.205 0.341,-0.962 0.803,-3.64 1.026,-5.95 0.223,-2.31 0.682,-5.01 1.021,-6 0.338,-0.99 0.855,-2.673 1.148,-3.74 0.294,-1.067 0.796,-2.237 1.116,-2.6 0.32,-0.363 0.714,-1.466 0.876,-2.451 0.162,-0.985 0.523,-2.155 0.802,-2.6 1.022,-1.627 1.106,-2.564 0.211,-2.33 -0.601,0.157 -1.027,0.929 -1.629,2.951 -0.448,1.506 -0.965,2.83 -1.148,2.944 -0.183,0.113 -0.566,1.065 -0.85,2.116 -0.285,1.05 -0.757,2.392 -1.05,2.981 -0.294,0.589 -0.806,2.749 -1.139,4.8 -0.333,2.051 -0.881,4.899 -1.218,6.329 -1.418,6.02 -1.145,28.674 0.406,33.74 0.327,1.067 0.708,3.137 0.848,4.6 0.14,1.463 0.566,3.386 0.946,4.274 0.381,0.887 0.822,2.301 0.98,3.143 0.157,0.841 0.61,2.275 1.005,3.186 0.395,0.912 1.097,2.841 1.559,4.288 0.683,2.14 1.824,4.954 2.786,6.869 0.353,0.702 -2.004,0.219 -3.398,-0.697 C 99.64,223.926 97.373,222.026 92.4,217.121 87.462,212.249 85.561,209.926 81.345,203.6 78.278,198.999 78,198.546 78,198.156 c 0,-0.22 -0.45,-1.011 -1,-1.756 -0.55,-0.745 -1,-1.608 -1,-1.916 0,-0.308 -0.367,-1.075 -0.815,-1.705 -1.314,-1.845 -3.348,-8.03 -5.979,-18.179 -1.789,-6.901 -1.95,-28.194 -0.233,-30.815 0.309,-0.472 0.767,-1.651 1.018,-2.621 0.251,-0.97 0.791,-2.664 1.2,-3.764 3.689,-9.916 3.616,-9.753 8.352,-18.713 3.005,-5.683 3.001,-5.677 7.232,-12.023 1.444,-2.164 2.915,-4.376 3.269,-4.916 0.355,-0.539 2.245,-2.885 4.2,-5.213 5.839,-6.95 8.146,-10.704 3.664,-5.961 m 89.388,104.038 c -1.597,1.643 -3.07,2.988 -3.273,2.988 -0.203,0 -0.477,0.341 -0.609,0.757 -0.132,0.416 -0.608,0.853 -1.057,0.97 -0.449,0.118 -0.914,0.587 -1.033,1.043 -0.12,0.457 -0.46,0.83 -0.757,0.83 -0.296,0 -0.755,0.405 -1.019,0.9 -0.566,1.059 -2.672,3.1 -3.199,3.1 -0.201,0 -0.571,0.45 -0.822,1 -0.25,0.55 -0.607,1 -0.791,1 -0.448,0 -3.536,3.103 -3.536,3.553 0,0.195 -0.359,0.448 -0.798,0.562 -0.439,0.115 -0.922,0.541 -1.074,0.947 -0.151,0.406 -0.602,0.973 -1.002,1.261 -1.724,1.241 1.752,7.277 4.191,7.277 0.27,0 0.715,0.36 0.99,0.8 0.275,0.44 0.74,0.8 1.034,0.8 0.294,0 1.038,0.433 1.653,0.961 0.616,0.529 1.648,1.067 2.295,1.197 0.647,0.129 1.624,0.587 2.172,1.018 0.547,0.431 1.838,0.905 2.867,1.053 1.03,0.148 2.229,0.562 2.665,0.92 0.739,0.606 0.757,0.604 0.271,-0.025 -0.287,-0.372 -2.775,-1.799 -5.529,-3.172 -2.754,-1.373 -5.666,-2.996 -6.471,-3.607 -3.777,-2.865 -4.398,-3.421 -5.018,-4.493 -0.847,-1.464 -1.638,-0.507 10.175,-12.311 5.427,-5.423 10.264,-10.418 10.75,-11.1 1.64,-2.303 -0.076,-1.315 -3.075,1.771"
                stroke="none"
                fill="#d0e7ac"
                fill-rule="evenodd" />
    </g>
</svg>
